<svg width="12" height="12" viewBox="0 0 12 12" fill="none" xmlns="http://www.w3.org/2000/svg">
<path d="M2.90683 11.7313H0.601523V4.30756H2.90683V11.7313ZM1.75339 3.29291C1.48793 3.29426 1.22803 3.21683 1.00659 3.07042C0.785156 2.92401 0.612129 2.71519 0.509412 2.4704C0.406695 2.22562 0.378905 1.95586 0.429558 1.69527C0.480212 1.43468 0.607033 1.19498 0.79397 1.0065C0.980908 0.818013 1.21956 0.689222 1.47972 0.636424C1.73988 0.583625 2.00986 0.609193 2.25548 0.70989C2.50111 0.810587 2.71134 0.981888 2.85957 1.20211C3.00781 1.42234 3.08737 1.68159 3.08821 1.94705C3.08808 2.30205 2.94776 2.64263 2.69778 2.89468C2.44779 3.14674 2.10837 3.28986 1.75339 3.29291ZM11.5351 11.7313H9.23448V8.1175C9.23448 7.25636 9.21713 6.15181 8.03582 6.15181C6.83717 6.15181 6.65369 7.08761 6.65369 8.05547V11.7313H4.35101V4.30756H6.56221V5.32011H6.59428C6.81554 4.94144 7.13545 4.62994 7.51988 4.41884C7.90431 4.20773 8.33883 4.10495 8.7771 4.12146C11.1103 4.12146 11.5393 5.65763 11.5393 7.65329V11.7313H11.5351Z" fill="white"/>
</svg>
