<svg width="14" height="11" viewBox="0 0 14 11" fill="none" xmlns="http://www.w3.org/2000/svg">
<path d="M12.2195 2.67093C12.2273 2.78396 12.2273 2.89647 12.2273 3.0095C12.2343 3.98491 12.0474 4.95197 11.6773 5.85449C11.3073 6.757 10.7615 7.57696 10.0718 8.26669C9.38206 8.95642 8.5621 9.50218 7.65959 9.87223C6.75708 10.2423 5.79001 10.4292 4.8146 10.4222C3.39725 10.4248 2.0093 10.0181 0.817505 9.25093C1.02699 9.27394 1.23764 9.28465 1.44838 9.283C2.62055 9.28582 3.75952 8.89376 4.6816 8.17003C4.13803 8.16055 3.61099 7.98152 3.17412 7.65795C2.73725 7.33437 2.41237 6.88241 2.24485 6.36521C2.40763 6.39103 2.57212 6.40457 2.73693 6.40569C2.96757 6.4048 3.19718 6.37495 3.42038 6.31685C2.83078 6.19713 2.3008 5.87702 1.92044 5.41089C1.54008 4.94476 1.33279 4.36134 1.33377 3.75971V3.72764C1.69461 3.92906 2.09793 4.04237 2.51087 4.05832C1.95798 3.6897 1.56664 3.12393 1.41676 2.47654C1.26688 1.82915 1.36976 1.14896 1.70441 0.57486C2.3585 1.37993 3.17447 2.03857 4.09944 2.50807C5.0244 2.97757 6.0377 3.24745 7.07365 3.30023C7.0318 3.10405 7.01013 2.90411 7.00899 2.70353C7.00947 2.18112 7.16689 1.67091 7.46083 1.23905C7.75477 0.807182 8.17167 0.473583 8.65748 0.281503C9.14329 0.0894221 9.6756 0.04772 10.1854 0.161803C10.6952 0.275886 11.159 0.540493 11.5166 0.921314C12.0999 0.808373 12.6592 0.594906 13.1695 0.290442C12.9752 0.892287 12.5681 1.4026 12.0244 1.72568C12.5417 1.6668 13.0473 1.53088 13.5243 1.32244C13.1677 1.84153 12.726 2.29671 12.2179 2.66883L12.2195 2.67093Z" fill="white"/>
</svg>
