<svg width="11" height="13" viewBox="0 0 11 13" fill="none" xmlns="http://www.w3.org/2000/svg">
<path d="M5.60246 0.611694C3.05584 0.611694 0.539185 2.30927 0.539185 5.05724C0.539185 6.80475 1.52229 7.79733 2.11636 7.79733C2.36188 7.79733 2.5033 7.11388 2.5033 6.91884C2.5033 6.68804 1.91501 6.19649 1.91501 5.23651C1.90692 4.77991 1.99216 4.32647 2.1655 3.90397C2.33883 3.48148 2.59662 3.09883 2.92306 2.77948C3.2495 2.46012 3.63772 2.2108 4.06392 2.04677C4.49011 1.88275 4.94532 1.80749 5.40163 1.8256C7.09184 1.8256 8.34307 2.7861 8.34307 4.55096C8.34307 5.86896 7.81419 8.34093 6.1019 8.34093C5.95478 8.34662 5.808 8.32283 5.67021 8.27096C5.53242 8.21908 5.4064 8.14017 5.29956 8.03887C5.19273 7.93757 5.10723 7.81592 5.0481 7.68108C4.98898 7.54624 4.95742 7.40094 4.95529 7.25372C4.95529 6.3153 5.61034 5.40685 5.61034 4.43898C5.61034 2.79609 3.2798 3.09365 3.2798 5.07932C3.26491 5.51132 3.34625 5.94122 3.51795 6.33791C3.17518 7.80994 2.47544 10.0091 2.47544 11.5279C2.47544 11.9968 2.5422 12.4584 2.58689 12.9279C2.67153 13.022 2.62895 13.0125 2.75828 12.9652C4.00898 11.254 3.96429 10.917 4.5305 8.67792C4.71883 8.95963 4.97522 9.18925 5.27592 9.34548C5.57663 9.50171 5.9119 9.57951 6.25068 9.57165C8.88667 9.57165 10.0706 7.00295 10.0706 4.68713C10.0701 2.21989 7.94036 0.611694 5.60246 0.611694Z" fill="white"/>
</svg>
