<svg width="12" height="12" viewBox="0 0 12 12" fill="none" xmlns="http://www.w3.org/2000/svg">
<path d="M6.15682 3.02775C5.59267 3.02744 5.04109 3.19444 4.57187 3.50764C4.10264 3.82084 3.73684 4.26616 3.52073 4.78728C3.30462 5.3084 3.24792 5.88191 3.35778 6.43526C3.46765 6.98861 3.73916 7.49694 4.13797 7.89597C4.53677 8.295 5.04496 8.56679 5.59825 8.67696C6.15154 8.78714 6.72508 8.73075 7.24632 8.51493C7.76755 8.29911 8.21308 7.93355 8.52654 7.4645C8.84 6.99545 9.00731 6.44397 9.00731 5.87981C9.00793 5.50523 8.93464 5.13421 8.79163 4.788C8.64862 4.4418 8.4387 4.12721 8.1739 3.86227C7.90911 3.59733 7.59464 3.38723 7.24851 3.24403C6.90238 3.10083 6.5314 3.02733 6.15682 3.02775ZM6.15682 7.73353C5.79009 7.73353 5.43159 7.62478 5.12666 7.42103C4.82173 7.21728 4.58407 6.92769 4.44373 6.58887C4.30338 6.25006 4.26666 5.87723 4.33821 5.51754C4.40976 5.15786 4.58635 4.82746 4.84567 4.56814C5.10499 4.30882 5.43539 4.13223 5.79507 4.06068C6.15476 3.98913 6.52759 4.02585 6.86641 4.1662C7.20522 4.30654 7.49481 4.5442 7.69856 4.84913C7.90231 5.15406 8.01106 5.51255 8.01106 5.87929C8.01022 6.37081 7.8146 6.84195 7.46704 7.18951C7.11949 7.53707 6.64834 7.73269 6.15682 7.73353ZM9.79064 2.91104C9.79012 3.04246 9.75068 3.17078 9.67729 3.2798C9.6039 3.38882 9.49985 3.47365 9.37828 3.52358C9.25672 3.57351 9.12308 3.58631 8.99425 3.56035C8.86542 3.53439 8.74716 3.47085 8.65442 3.37774C8.56167 3.28462 8.49859 3.16612 8.47315 3.03719C8.4477 2.90825 8.46102 2.77467 8.51143 2.6533C8.56184 2.53193 8.64708 2.42822 8.75639 2.35526C8.8657 2.2823 8.99418 2.24336 9.1256 2.24336C9.21321 2.24315 9.3 2.2603 9.38096 2.29381C9.46191 2.32732 9.53542 2.37654 9.59725 2.43861C9.65909 2.50069 9.70801 2.5744 9.7412 2.65548C9.77439 2.73657 9.7912 2.82342 9.79064 2.91104ZM11.6796 3.58607C11.6979 2.72135 11.3752 1.88416 10.7811 1.25552C10.1513 0.663363 9.3149 0.340921 8.45056 0.357056C7.53212 0.304484 4.77942 0.304484 3.8615 0.357056C2.99776 0.339308 2.16134 0.660066 1.53095 1.25079C0.937086 1.88064 0.61426 2.71848 0.631959 3.58397C0.579386 4.50241 0.579386 7.25511 0.631959 8.17303C0.613622 9.03775 0.936374 9.87495 1.53043 10.5036C2.16058 11.0952 2.99675 11.4176 3.86097 11.402C4.77942 11.4546 7.53212 11.4546 8.45004 11.402C9.31476 11.4204 10.152 11.0976 10.7806 10.5036C11.3727 9.87375 11.6952 9.03737 11.6791 8.17303C11.7316 7.25459 11.7316 4.50451 11.6791 3.58607H11.6796ZM10.493 9.15877C10.3986 9.39803 10.2561 9.61534 10.0742 9.79721C9.89235 9.97908 9.67504 10.1216 9.43578 10.216C8.70344 10.5062 6.96486 10.4394 6.15682 10.4394C5.34878 10.4394 3.60757 10.5041 2.87786 10.216C2.6386 10.1216 2.42129 9.97908 2.23942 9.79721C2.05755 9.61534 1.915 9.39803 1.82063 9.15877C1.53043 8.42643 1.59719 6.68786 1.59719 5.87981C1.59719 5.07177 1.53253 3.33057 1.82063 2.60086C1.91506 2.36155 2.05769 2.1442 2.23965 1.96233C2.42162 1.78046 2.63903 1.63794 2.87839 1.54362C3.61073 1.25342 5.3493 1.32019 6.15734 1.32019C6.96539 1.32019 8.70659 1.25552 9.4363 1.54362C9.67547 1.63806 9.89267 1.78063 10.0744 1.9625C10.2562 2.14437 10.3987 2.36165 10.493 2.60086C10.7832 3.33319 10.7164 5.07177 10.7164 5.87981C10.7164 6.68786 10.7837 8.42854 10.493 9.15825V9.15877Z" fill="white"/>
</svg>
